<svg width="300" height="50" viewBox="0 0 300 50" fill="none" xmlns="http://www.w3.org/2000/svg">
<path d="M1.03156 12.408C0.370831 13.4727 0 14.6909 0 16.016V33.4245C0 36.2082 1.39273 38.531 3.94566 39.9237L21.5861 49.6728C23.2107 50.6017 25.2998 49.4421 25.2998 47.5843V24.3875L1.03156 12.408Z" fill="white"/>
<path d="M0.246769 14.1951C0.214398 14.3147 0.182627 14.4342 0.15625 14.5562C0.182627 14.4342 0.213798 14.3147 0.246769 14.1951Z" fill="#999999"/>
<path d="M45.9606 9.51688L27.8551 0.696666C25.766 -0.232222 23.4444 -0.232222 21.3559 0.696666L4.18053 9.51688C2.69057 10.3298 1.5201 11.4604 0.800781 12.8127C0.87386 12.6756 0.951771 12.5409 1.03391 12.408L25.3022 24.3869V24.3724L45.9612 13.9276C47.819 12.9981 47.819 10.4452 45.9606 9.51688Z" fill="#999999"/>
<path d="M0.0447087 15.2732C0.0363162 15.3535 0.0249265 15.4332 0.0195312 15.5142C0.0255259 15.4326 0.0363162 15.3529 0.0447087 15.2732Z" fill="#999999"/>
<path d="M0.129969 14.7126C0.110187 14.8171 0.0892054 14.9216 0.0742188 15.0273C0.0892054 14.9216 0.109588 14.8171 0.129969 14.7126Z" fill="#999999"/>
<path d="M0.401125 13.7097C0.354966 13.8384 0.311803 13.9682 0.273438 14.0999C0.311803 13.9676 0.354966 13.8384 0.401125 13.7097Z" fill="#999999"/>
<path d="M0.799378 12.8174C0.727507 12.9527 0.660468 13.0898 0.597656 13.2293C0.660468 13.0898 0.727507 12.9527 0.799378 12.8174Z" fill="#999999"/>
<path d="M0.587963 13.2507C0.528171 13.3848 0.472607 13.5201 0.421875 13.6584C0.473211 13.5201 0.528171 13.3848 0.587963 13.2507Z" fill="#999999"/>
<path d="M15.2315 24.5441L9.66285 25.4329C9.27931 25.4942 9.04488 25.834 9.04488 26.3281V38.0011L6.63351 36.8194C5.58423 36.3052 4.73438 34.9424 4.73438 33.7739V21.5147C4.73438 20.3463 5.58423 19.8164 6.63351 20.3306L15.2315 24.5441Z" fill="black"/>
<path d="M19.5398 28.771V41.0302C19.5398 42.1983 18.6899 42.7286 17.6406 42.2143L9.04297 38.001L14.612 37.1124C14.9956 37.0535 15.2296 36.7107 15.2296 36.219V24.544L17.641 25.7257C18.6899 26.2397 19.5398 27.6025 19.5398 28.771Z" fill="black"/>
<path d="M65.0516 36V15H68.0516V36H65.0516ZM72.4098 36V21H75.2598V23.1C76.1598 21.72 77.6598 20.7 80.0598 20.7C83.5098 20.7 85.4598 22.8 85.4598 25.95V36H82.6098V26.55C82.6098 24.45 81.7098 23.1 79.5798 23.1H79.3398C77.2098 23.1 75.2598 24.75 75.2598 27.6V36H72.4098ZM93.9549 36C91.8549 36 90.6549 34.8 90.6549 32.7V23.46H87.3549V21H90.6549V16.14H93.5049V21H97.1049V23.46H93.5049V32.25C93.5049 33.15 93.8049 33.45 94.7049 33.45H97.5549V36H93.9549ZM106.042 36.3C102.322 36.3 98.9621 33.72 98.9621 28.47C98.9621 23.28 102.412 20.7 105.952 20.7C109.852 20.7 112.312 23.4 112.312 27.3C112.312 27.84 112.312 28.41 112.312 28.95H101.812C101.992 32.4 104.182 33.9 106.012 33.9H106.252C107.722 33.9 109.132 33.15 109.432 31.56H112.282C111.742 34.59 109.132 36.3 106.042 36.3ZM101.992 26.7H109.462C109.342 24.06 107.782 23.1 106.072 23.1H105.832C104.272 23.1 102.532 24.03 101.992 26.7ZM115.405 36V21H118.105V24.3C118.705 22.05 120.505 20.85 122.455 20.85H123.805V23.61H122.605C119.905 23.61 118.255 25.41 118.255 28.41V36H115.405ZM129.841 36.3C126.991 36.3 124.891 34.41 124.891 31.86C124.891 29.22 126.901 27.51 130.351 27.21L134.491 26.88V26.4C134.491 24.33 133.321 23.1 131.371 23.1H131.131C129.421 23.1 128.191 23.97 128.041 25.35H125.191C125.371 22.59 127.861 20.7 131.251 20.7C134.881 20.7 137.341 23.01 137.341 26.4V32.7C137.341 34.26 137.401 35.25 137.491 36H134.791C134.701 35.58 134.641 34.47 134.641 33.57C133.951 35.16 131.941 36.3 129.841 36.3ZM127.741 31.74C127.741 32.97 128.761 33.9 130.171 33.9H130.411C132.451 33.9 134.491 32.25 134.491 30.6V29.07L130.741 29.37C128.881 29.52 127.741 30.45 127.741 31.74ZM147.399 36.3C142.779 36.3 140.199 32.91 140.199 28.5C140.199 24.09 142.779 20.7 147.399 20.7C150.819 20.7 153.249 22.71 153.549 25.95H150.699C150.429 24.3 149.229 23.1 147.519 23.1H147.279C144.399 23.1 143.049 25.65 143.049 28.5C143.049 31.35 144.399 33.9 147.279 33.9H147.519C149.229 33.9 150.429 32.7 150.699 31.05H153.549C153.249 34.29 150.819 36.3 147.399 36.3ZM161.209 36C159.109 36 157.909 34.8 157.909 32.7V23.46H154.609V21H157.909V16.14H160.759V21H164.359V23.46H160.759V32.25C160.759 33.15 161.059 33.45 161.959 33.45H164.809V36H161.209ZM167.292 36V21H170.142V36H167.292ZM167.142 18.3V15H170.292V18.3H167.142ZM177.825 36L172.275 21H175.215L179.565 33.21L183.915 21H186.825L181.275 36H177.825ZM194.772 36.3C191.052 36.3 187.692 33.72 187.692 28.47C187.692 23.28 191.142 20.7 194.682 20.7C198.582 20.7 201.042 23.4 201.042 27.3C201.042 27.84 201.042 28.41 201.042 28.95H190.542C190.722 32.4 192.912 33.9 194.742 33.9H194.982C196.452 33.9 197.862 33.15 198.162 31.56H201.012C200.472 34.59 197.862 36.3 194.772 36.3ZM190.722 26.7H198.192C198.072 24.06 196.512 23.1 194.802 23.1H194.562C193.002 23.1 191.262 24.03 190.722 26.7ZM204.134 36V15H206.984V36H204.134ZM210.138 41.55V39H214.338C215.238 39 215.538 38.7 215.538 37.8V35.67L209.238 21H212.268L216.948 32.07L221.448 21H224.388L218.238 35.64V38.4C218.238 40.5 217.188 41.55 215.088 41.55H210.138ZM233.048 36V15H236.048V33.3H248.348V36H233.048ZM254.564 36.3C251.714 36.3 249.614 34.41 249.614 31.86C249.614 29.22 251.624 27.51 255.074 27.21L259.214 26.88V26.4C259.214 24.33 258.044 23.1 256.094 23.1H255.854C254.144 23.1 252.914 23.97 252.764 25.35H249.914C250.094 22.59 252.584 20.7 255.974 20.7C259.604 20.7 262.064 23.01 262.064 26.4V32.7C262.064 34.26 262.124 35.25 262.214 36H259.514C259.424 35.58 259.364 34.47 259.364 33.57C258.674 35.16 256.664 36.3 254.564 36.3ZM252.464 31.74C252.464 32.97 253.484 33.9 254.894 33.9H255.134C257.174 33.9 259.214 32.25 259.214 30.6V29.07L255.464 29.37C253.604 29.52 252.464 30.45 252.464 31.74ZM273.622 36.3C271.522 36.3 269.422 35.25 268.672 33.9V36H265.822V15H268.672V23.1C269.422 21.75 271.222 20.7 273.322 20.7C277.072 20.7 280.072 23.55 280.072 28.5C280.072 33.45 277.372 36.3 273.622 36.3ZM273.142 33.9C275.422 33.9 277.222 32.1 277.222 28.5C277.222 24.9 275.422 23.1 273.142 23.1H272.902C270.772 23.1 268.672 24.9 268.672 28.5C268.672 32.1 270.772 33.9 272.902 33.9H273.142ZM288.103 36.3C284.113 36.3 281.953 34.2 281.953 31.35H284.803C284.953 33.15 286.363 33.9 288.133 33.9H288.373C289.933 33.9 291.163 33.15 291.163 31.95C291.163 30.99 290.623 30.33 289.123 30.03L286.933 29.61C284.503 29.13 282.553 27.87 282.553 25.32C282.553 22.32 285.223 20.7 288.223 20.7C292.153 20.7 294.163 22.8 294.163 25.65H291.313C291.163 24.3 290.323 23.1 288.373 23.1H288.133C286.453 23.1 285.403 23.97 285.403 25.02C285.403 26.07 286.003 26.64 287.503 26.94L289.873 27.42C292.153 27.87 294.013 29.1 294.013 31.8C294.013 34.5 291.583 36.3 288.103 36.3Z" fill="white"/>
</svg>
