<svg width="140" height="140" viewBox="0 0 140 140" fill="none" xmlns="http://www.w3.org/2000/svg">
<rect width="140" height="140" rx="70" fill="url(#paint0_radial_1376_2187)"/>
<rect x="1" y="1" width="138" height="138" rx="69" stroke="white" stroke-opacity="0.55" stroke-width="2"/>
<path d="M83.3707 38L59.3018 52.0421C57.6441 53.0096 56.6308 54.7744 56.6308 56.6923V102H46.2084C41.6732 102 38 98.3266 38 93.7914V46.2084C38 41.6732 41.6732 38 46.2084 38H83.3707Z" fill="url(#paint1_linear_1376_2187)"/>
<path d="M101.994 46.2084V93.7914C101.994 98.3253 98.3211 102 93.7859 102H56.625L80.6955 87.9578C82.3533 86.9997 83.3651 85.224 83.3651 83.3157V38H93.7875C98.3211 38 101.994 41.6732 101.994 46.2084Z" fill="url(#paint2_linear_1376_2187)"/>
<defs>
<radialGradient id="paint0_radial_1376_2187" cx="0" cy="0" r="1" gradientUnits="userSpaceOnUse" gradientTransform="translate(70 -1.37255) rotate(90) scale(142.745 98.3624)">
<stop stop-color="#121212"/>
<stop offset="1"/>
</radialGradient>
<linearGradient id="paint1_linear_1376_2187" x1="60.6853" y1="38" x2="99.9818" y2="89.4285" gradientUnits="userSpaceOnUse">
<stop stop-color="#FDFDFD"/>
<stop offset="1" stop-color="#ADADAD"/>
</linearGradient>
<linearGradient id="paint2_linear_1376_2187" x1="79.3096" y1="38" x2="118.606" y2="89.4272" gradientUnits="userSpaceOnUse">
<stop stop-color="#FDFDFD"/>
<stop offset="1" stop-color="#ADADAD"/>
</linearGradient>
</defs>
</svg>
