<svg width="158" height="27" viewBox="0 0 158 27" fill="none" xmlns="http://www.w3.org/2000/svg">
<mask id="mask0_1565_4429" style="mask-type:luminance" maskUnits="userSpaceOnUse" x="0" y="2" width="22" height="23">
<path d="M22 2.5H0V24.5H22V2.5Z" fill="white"/>
</mask>
<g mask="url(#mask0_1565_4429)">
<path d="M15.5962 2.5L7.3225 7.32698C6.75264 7.65955 6.40435 8.2662 6.40435 8.92547V24.5H2.82164C1.26267 24.5 0 23.2373 0 21.6783V5.32164C0 3.76267 1.26267 2.5 2.82164 2.5H15.5962Z" fill="white"/>
<path d="M21.998 5.32164V21.6783C21.998 23.2368 20.7354 24.5 19.1764 24.5H6.40234L14.6766 19.673C15.2465 19.3437 15.5942 18.7333 15.5942 18.0773V2.5H19.1769C20.7354 2.5 21.998 3.76267 21.998 5.32164Z" fill="white"/>
</g>
<path d="M30.989 21.5V5.12H33.797V21.5H30.989ZM36.8478 21.5V9.8H39.5388V11.5082C40.2408 10.3616 41.5044 9.566 43.1658 9.566C45.927 9.566 47.3076 11.3444 47.3076 13.8716V21.5H44.6166V14.2694C44.6166 12.7016 43.9146 11.7656 42.534 11.7656H42.3468C40.8492 11.7656 39.5388 13.076 39.5388 14.9714V21.5H36.8478ZM53.8475 21.5C52.0223 21.5 51.0161 20.4938 51.0161 18.6686V12.023H48.5357V9.8H51.0161V6.0092H53.7071V9.8H56.3981V12.023H53.7071V18.0368C53.7071 18.9494 53.9411 19.1834 54.8537 19.1834H56.7491V21.5H53.8475ZM63.2757 21.734C60.3507 21.734 57.7299 19.6046 57.7299 15.65C57.7299 11.906 60.0465 9.566 63.2289 9.566C66.5517 9.566 68.4237 11.9294 68.4237 15.1586C68.4237 15.5564 68.4003 15.9308 68.3769 16.352H60.3975C60.4911 18.4112 61.9419 19.5344 63.2757 19.5344H63.4629C64.6095 19.5344 65.4753 18.9026 65.7093 17.8964H68.3769C67.8855 20.213 65.9667 21.734 63.2757 21.734ZM60.4677 14.2694H65.7795C65.7093 12.608 64.5627 11.7656 63.2757 11.7656H63.0885C61.8015 11.7656 60.6315 12.5612 60.4677 14.2694ZM70.4905 21.5V9.8H73.1347V12.257C73.6027 10.619 74.8663 9.683 76.5277 9.683H77.3233V12.2102H76.3171C74.2813 12.2102 73.1815 13.3568 73.1815 15.4862V21.5H70.4905ZM81.756 21.734C79.5798 21.734 77.9184 20.3534 77.9184 18.2942C77.9184 15.9542 79.6968 14.7374 82.2006 14.5268L85.266 14.2694V13.9418C85.266 12.6548 84.447 11.7656 83.1366 11.7656H82.9494C81.7326 11.7656 80.937 12.4676 80.8434 13.3334H78.1524C78.3396 11.1572 80.2584 9.566 83.043 9.566C85.9446 9.566 87.8868 11.1806 87.8868 13.8716V18.926C87.8868 19.8386 87.9102 20.798 88.0038 21.5H85.4766C85.4064 21.1724 85.3596 20.5172 85.3362 19.8854C84.7044 20.9618 83.3238 21.734 81.756 21.734ZM80.586 18.1304C80.586 18.9494 81.288 19.5344 82.224 19.5344H82.4112C83.862 19.5344 85.266 18.3878 85.266 16.9604V16.2584L82.5516 16.5158C81.4752 16.6094 80.586 17.1476 80.586 18.1304ZM95.4347 21.734C92.0651 21.734 89.8187 19.2536 89.8187 15.65C89.8187 12.0464 92.0651 9.566 95.4347 9.566C98.3129 9.566 100.255 11.0402 100.489 13.8014H97.7981C97.6109 12.608 96.8153 11.7656 95.5283 11.7656H95.3411C93.3755 11.7656 92.5097 13.5674 92.5097 15.65C92.5097 17.7326 93.3755 19.5344 95.3411 19.5344H95.5283C96.8153 19.5344 97.6109 18.692 97.7981 17.4986H100.489C100.255 20.2598 98.3129 21.734 95.4347 21.734ZM106.537 21.5C104.712 21.5 103.705 20.4938 103.705 18.6686V12.023H101.225V9.8H103.705V6.0092H106.396V9.8H109.087V12.023H106.396V18.0368C106.396 18.9494 106.63 19.1834 107.543 19.1834H109.438V21.5H106.537ZM111.189 21.5V9.8H113.88V21.5H111.189ZM111.072 8.0216V5.12H113.997V8.0216H111.072ZM119.43 21.5L115.265 9.8H118.097L121.302 19.277L124.508 9.8H127.269L123.104 21.5H119.43ZM133.252 21.734C130.327 21.734 127.706 19.6046 127.706 15.65C127.706 11.906 130.023 9.566 133.205 9.566C136.528 9.566 138.4 11.9294 138.4 15.1586C138.4 15.5564 138.376 15.9308 138.353 16.352H130.374C130.467 18.4112 131.918 19.5344 133.252 19.5344H133.439C134.586 19.5344 135.451 18.9026 135.685 17.8964H138.353C137.862 20.213 135.943 21.734 133.252 21.734ZM130.444 14.2694H135.756C135.685 12.608 134.539 11.7656 133.252 11.7656H133.065C131.778 11.7656 130.608 12.5612 130.444 14.2694ZM140.467 21.5V5.12H143.158V21.5H140.467ZM145.292 26.063V23.6996H148.475C149.387 23.6996 149.621 23.4656 149.621 22.5764V20.8916L144.59 9.8H147.562L150.932 17.5688L154.161 9.8H157.086L152.172 20.7746V23.255C152.172 25.1036 151.212 26.063 149.387 26.063H145.292Z" fill="white"/>
</svg>
