<svg width="785" height="89" viewBox="0 0 785 89" fill="none" xmlns="http://www.w3.org/2000/svg">
<path d="M3.57628e-07 70V-4.76837e-06H10V70H3.57628e-07ZM25.7273 70V20H35.2273V27C38.2273 22.4 43.2273 19 51.2273 19C62.7273 19 69.2273 26 69.2273 36.5V70H59.7273V38.5C59.7273 31.5 56.7273 27 49.6273 27H48.8273C41.7273 27 35.2273 32.5 35.2273 42V70H25.7273ZM98.7445 70C91.7445 70 87.7445 66 87.7445 59V28.2H76.7445V20H87.7445V3.79999H97.2445V20H109.245V28.2H97.2445V57.5C97.2445 60.5 98.2445 61.5 101.245 61.5H110.745V70H98.7445ZM140.235 71C127.835 71 116.635 62.4 116.635 44.9C116.635 27.6 128.135 19 139.935 19C152.935 19 161.135 28 161.135 41C161.135 42.8 161.135 44.7 161.135 46.5H126.135C126.735 58 134.035 63 140.135 63H140.935C145.835 63 150.535 60.5 151.535 55.2H161.035C159.235 65.3 150.535 71 140.235 71ZM126.735 39H151.635C151.235 30.2 146.035 27 140.335 27H139.535C134.335 27 128.535 30.1 126.735 39ZM172.644 70V20H181.644V31C183.644 23.5 189.644 19.5 196.144 19.5H200.644V28.7H196.644C187.644 28.7 182.144 34.7 182.144 44.7V70H172.644ZM221.965 71C212.465 71 205.465 64.7 205.465 56.2C205.465 47.4 212.165 41.7 223.665 40.7L237.465 39.6V38C237.465 31.1 233.565 27 227.065 27H226.265C220.565 27 216.465 29.9 215.965 34.5H206.465C207.065 25.3 215.365 19 226.665 19C238.765 19 246.965 26.7 246.965 38V59C246.965 64.2 247.165 67.5 247.465 70H238.465C238.165 68.6 237.965 64.9 237.965 61.9C235.665 67.2 228.965 71 221.965 71ZM214.965 55.8C214.965 59.9 218.365 63 223.065 63H223.865C230.665 63 237.465 57.5 237.465 52V46.9L224.965 47.9C218.765 48.4 214.965 51.5 214.965 55.8ZM281.692 71C266.292 71 257.692 59.7 257.692 45C257.692 30.3 266.292 19 281.692 19C293.092 19 301.192 25.7 302.192 36.5H292.692C291.792 31 287.792 27 282.092 27H281.292C271.692 27 267.192 35.5 267.192 45C267.192 54.5 271.692 63 281.292 63H282.092C287.792 63 291.792 59 292.692 53.5H302.192C301.192 64.3 293.092 71 281.692 71ZM328.924 70C321.924 70 317.924 66 317.924 59V28.2H306.924V20H317.924V3.79999H327.424V20H339.424V28.2H327.424V57.5C327.424 60.5 328.424 61.5 331.424 61.5H340.924V70H328.924ZM350.401 70V20H359.901V70H350.401ZM349.901 11V-4.76837e-06H360.401V11H349.901ZM386.712 70L368.212 20H378.012L392.512 60.7L407.012 20H416.712L398.212 70H386.712ZM444.401 71C432.001 71 420.801 62.4 420.801 44.9C420.801 27.6 432.301 19 444.101 19C457.101 19 465.301 28 465.301 41C465.301 42.8 465.301 44.7 465.301 46.5H430.301C430.901 58 438.201 63 444.301 63H445.101C450.001 63 454.701 60.5 455.701 55.2H465.201C463.401 65.3 454.701 71 444.401 71ZM430.901 39H455.801C455.401 30.2 450.201 27 444.501 27H443.701C438.501 27 432.701 30.1 430.901 39ZM476.809 70V-4.76837e-06H486.309V70H476.809ZM498.021 88.5V80H512.021C515.021 80 516.021 79 516.021 76V68.9L495.021 20H505.121L520.721 56.9L535.721 20H545.521L525.021 68.8V78C525.021 85 521.521 88.5 514.521 88.5H498.021ZM576.788 70V-4.76837e-06H586.788V61H627.788V70H576.788ZM649.707 71C640.207 71 633.207 64.7 633.207 56.2C633.207 47.4 639.907 41.7 651.407 40.7L665.207 39.6V38C665.207 31.1 661.307 27 654.807 27H654.007C648.307 27 644.207 29.9 643.707 34.5H634.207C634.807 25.3 643.107 19 654.407 19C666.507 19 674.707 26.7 674.707 38V59C674.707 64.2 674.907 67.5 675.207 70H666.207C665.907 68.6 665.707 64.9 665.707 61.9C663.407 67.2 656.707 71 649.707 71ZM642.707 55.8C642.707 59.9 646.107 63 650.807 63H651.607C658.407 63 665.207 57.5 665.207 52V46.9L652.707 47.9C646.507 48.4 642.707 51.5 642.707 55.8ZM714.434 71C707.434 71 700.434 67.5 697.934 63V70H688.434V-4.76837e-06H697.934V27C700.434 22.5 706.434 19 713.434 19C725.934 19 735.934 28.5 735.934 45C735.934 61.5 726.934 71 714.434 71ZM712.834 63C720.434 63 726.434 57 726.434 45C726.434 33 720.434 27 712.834 27H712.034C704.934 27 697.934 33 697.934 45C697.934 57 704.934 63 712.034 63H712.834ZM763.905 71C750.605 71 743.405 64 743.405 54.5H752.905C753.405 60.5 758.105 63 764.005 63H764.805C770.005 63 774.105 60.5 774.105 56.5C774.105 53.3 772.305 51.1 767.305 50.1L760.005 48.7C751.905 47.1 745.405 42.9 745.405 34.4C745.405 24.4 754.305 19 764.305 19C777.405 19 784.105 26 784.105 35.5H774.605C774.105 31 771.305 27 764.805 27H764.005C758.405 27 754.905 29.9 754.905 33.4C754.905 36.9 756.905 38.8 761.905 39.8L769.805 41.4C777.405 42.9 783.605 47 783.605 56C783.605 65 775.505 71 763.905 71Z" fill="white"/>
</svg>
